<?xml version="1.0" encoding="UTF-8"?>
<!DOCTYPE svg PUBLIC "-//W3C//DTD SVG 1.1//EN" "http://www.w3.org/Graphics/SVG/1.1/DTD/svg11.dtd">
<!-- Creator: CorelDRAW 2019 (64-Bit) -->
<svg xmlns="http://www.w3.org/2000/svg" xml:space="preserve" width="2.75474in" height="2.73407in" version="1.1" style="shape-rendering:geometricPrecision; text-rendering:geometricPrecision; image-rendering:optimizeQuality; fill-rule:evenodd; clip-rule:evenodd"
viewBox="0 0 2171.17 2154.88"
 xmlns:xlink="http://www.w3.org/1999/xlink"
 xmlns:xodm="http://www.corel.com/coreldraw/odm/2003">
 <defs>
  <style type="text/css">
   <![CDATA[
    .str0 {stroke:#FEFEFE;stroke-width:43.79;stroke-linecap:square;stroke-miterlimit:22.9256}
    .fil3 {fill:#FFCC29}
    .fil0 {fill:#ED3237}
    .fil1 {fill:#00AFEF}
    .fil2 {fill:#00A859}
   ]]>
  </style>
 </defs>
 <g id="Layer_x0020_1">
  <metadata id="CorelCorpID_0Corel-Layer"/>
  <g id="_2040895416352">
   <path class="fil0 str0" d="M1127.69 1066.01c6.01,-56.11 42.67,-345.38 -22.94,-376.13 -225.98,-105.83 -645.03,320.3 -645.7,-138.86 -0.55,-376.31 394.93,-44.3 618.45,-71.83 90.84,14.32 39.64,-418.86 46.28,-429.1 4.88,-2.33 6.8,-2.43 8.65,-3.03 243.64,-37.23 697.66,-29.32 988.92,-1.3 9.21,11.65 -9.83,824.07 7.79,1032.58 -79.42,0 -371.81,55.59 -408.8,-35.88 -23.28,-294.9 316.62,-601.61 -99.47,-631.82 -489.21,26.87 -89.05,366.89 -154.24,662.63 -66.56,22.07 -220.54,27.97 -338.95,-7.26z"/>
   <path class="fil1 str0" d="M1066.01 1044.24c-56.11,-6.01 -345.38,-42.67 -376.12,22.94 -105.84,225.98 320.3,645.03 -138.86,645.7 -376.31,0.55 -44.3,-394.94 -71.83,-618.46 14.32,-90.84 -418.86,-39.64 -429.1,-46.28 -2.33,-4.88 -2.43,-6.8 -3.03,-8.65 -37.22,-243.64 -29.32,-697.66 -1.3,-988.92 11.65,-9.21 824.07,9.83 1032.58,-7.79 0,79.42 55.59,371.81 -35.88,408.79 -294.9,23.28 -601.61,-316.62 -631.82,99.47 26.88,489.21 366.9,89.05 662.63,154.24 22.07,66.55 27.96,220.54 -7.27,338.95z"/>
   <path class="fil2 str0" d="M1046.43 1088.87c-6.01,56.11 -42.67,345.38 22.94,376.13 225.98,105.83 645.03,-320.3 645.7,138.86 0.55,376.31 -394.93,44.3 -618.45,71.83 -90.84,-14.32 -39.64,418.86 -46.28,429.1 -4.88,2.33 -6.8,2.43 -8.65,3.03 -243.64,37.23 -697.66,29.32 -988.92,1.3 -9.21,-11.65 9.83,-824.07 -7.79,-1032.58 79.42,0 371.81,-55.59 408.8,35.88 23.28,294.9 -316.62,601.61 99.47,631.82 489.21,-26.87 89.05,-366.89 154.24,-662.63 66.56,-22.07 220.54,-27.97 338.95,7.26z"/>
   <path class="fil3 str0" d="M1105.16 1118.83c56.11,6.01 345.38,42.67 376.13,-22.94 105.83,-225.98 -320.3,-645.03 138.86,-645.7 376.31,-0.55 44.3,394.94 71.83,618.45 -14.32,90.84 418.86,39.64 429.1,46.28 2.33,4.88 2.43,6.8 3.03,8.65 37.23,243.64 29.32,697.66 1.3,988.92 -11.65,9.21 -824.07,-9.83 -1032.58,7.79 0,-79.42 -55.59,-371.81 35.88,-408.8 294.9,-23.28 601.61,316.62 631.82,-99.47 -26.87,-489.21 -366.89,-89.05 -662.63,-154.24 -22.07,-66.56 -27.97,-220.54 7.26,-338.95z"/>
  </g>
 </g>
</svg>
